<?xml version="1.0" standalone="no"?>
<!DOCTYPE svg PUBLIC "-//W3C//DTD SVG 1.1//EN" "http://www.w3.org/Graphics/SVG/1.1/DTD/svg11.dtd" >
<svg xmlns="http://www.w3.org/2000/svg">
<metadata></metadata>
<defs>
<font id="trs_millionregular" horiz-adv-x="1142" >
<font-face units-per-em="2048" ascent="1667" descent="-381" />
<missing-glyph horiz-adv-x="708" />
<glyph unicode="&#x28;C&#x29;" horiz-adv-x="1796" d="M109 326v272h272v-272h-272zM109 653v273h272v-273h-272zM109 979v272h272v-272h-272zM436 0v272h273v-272h-273zM436 1307v272h273v-272h-273zM680 453v202h203v-202h-203zM680 694v201h203v-201h-203zM680 936v201h203v-201h-203zM762 0v272h272v-272h-272zM762 1307 v272h272v-272h-272zM920 453v202h204v-202h-204zM920 936v201h204v-201h-204zM1090 0v272h270v-272h-270zM1090 1307v272h270v-272h-270zM1415 326v272h273v-272h-273zM1415 653v273h273v-273h-273zM1415 979v272h273v-272h-273z" />
<glyph unicode="&#x28;R&#x29;" horiz-adv-x="1796" d="M109 326v272h272v-272h-272zM109 653v273h272v-273h-272zM109 979v272h272v-272h-272zM436 0v272h273v-272h-273zM436 1307v272h273v-272h-273zM621 422v160h159v-160h-159zM621 612v160h159v-160h-159zM621 805v158h159v-158h-159zM621 995v162h159v-162h-159zM762 0 v272h272v-272h-272zM762 1307v272h272v-272h-272zM811 612v160h160v-160h-160zM811 995v162h160v-162h-160zM1001 422v160h160v-160h-160zM1001 805v158h160v-158h-160zM1001 995v162h160v-162h-160zM1090 0v272h270v-272h-270zM1090 1307v272h270v-272h-270zM1415 326v272 h273v-272h-273zM1415 653v273h273v-273h-273zM1415 979v272h273v-272h-273z" />
<glyph horiz-adv-x="0" />
<glyph unicode="&#xd;" horiz-adv-x="708" />
<glyph horiz-adv-x="708" />
<glyph unicode=" "  horiz-adv-x="708" />
<glyph unicode="&#x09;" horiz-adv-x="708" />
<glyph unicode="&#xa0;" horiz-adv-x="708" />
<glyph unicode="!" horiz-adv-x="489" d="M109 0v272h272v-272h-272zM109 653v273h272v-273h-272zM109 979v272h272v-272h-272zM109 1307v272h272v-272h-272z" />
<glyph unicode="&#x22;" d="M109 979v272h272v-272h-272zM109 1307v272h272v-272h-272zM762 979v272h272v-272h-272zM762 1307v272h272v-272h-272z" />
<glyph unicode="#" horiz-adv-x="1796" d="M109 326v272h272v-272h-272zM109 979v272h272v-272h-272zM436 0v272h273v-272h-273zM436 326v272h273v-272h-273zM436 653v273h273v-273h-273zM436 979v272h273v-272h-273zM436 1307v272h273v-272h-273zM762 326v272h272v-272h-272zM762 979v272h272v-272h-272zM1090 0 v272h270v-272h-270zM1090 326v272h270v-272h-270zM1090 653v273h270v-273h-270zM1090 979v272h270v-272h-270zM1090 1307v272h270v-272h-270zM1415 326v272h273v-272h-273zM1415 979v272h273v-272h-273z" />
<glyph unicode="$" d="M109 0v272h272v-272h-272zM109 653v273h272v-273h-272zM109 979v272h272v-272h-272zM109 1307v272h272v-272h-272zM436 0v272h273v-272h-273zM436 -55h273v-271h-273v271zM436 653v273h273v-273h-273zM436 1307v272h273v-272h-273zM436 1632v273h273v-273h-273zM762 0 v272h272v-272h-272zM762 326v272h272v-272h-272zM762 653v273h272v-273h-272zM762 1307v272h272v-272h-272z" />
<glyph unicode="%" d="M109 0v272h272v-272h-272zM109 326v272h272v-272h-272zM109 1307v272h272v-272h-272zM436 653v273h273v-273h-273zM762 0v272h272v-272h-272zM762 979v272h272v-272h-272zM762 1307v272h272v-272h-272z" />
<glyph unicode="&#x26;" d="M109 326v272h272v-272h-272zM109 653v273h272v-273h-272zM109 979v272h272v-272h-272zM109 1307v272h272v-272h-272zM436 0v272h273v-272h-273zM436 653v273h273v-273h-273zM436 1307v272h273v-272h-273zM762 0v272h272v-272h-272zM762 653v273h272v-273h-272z" />
<glyph unicode="'" horiz-adv-x="489" d="M109 979v272h272v-272h-272zM109 1307v272h272v-272h-272z" />
<glyph unicode="(" horiz-adv-x="978" d="M272 0v272h273v-272h-273zM272 326v272h273v-272h-273zM272 653v273h273v-273h-273zM272 979v272h273v-272h-273zM272 1307v272h273v-272h-273zM598 -55h272v-271h-272v271zM598 1632v273h272v-273h-272z" />
<glyph unicode=")" horiz-adv-x="978" d="M109 -55h272v-271h-272v271zM109 1632v273h272v-273h-272zM436 0v272h273v-272h-273zM436 326v272h273v-272h-273zM436 653v273h273v-273h-273zM436 979v272h273v-272h-273zM436 1307v272h273v-272h-273z" />
<glyph unicode="*" horiz-adv-x="1470" d="M109 326v272h272v-272h-272zM109 1307v272h272v-272h-272zM436 653v273h273v-273h-273zM436 979v272h273v-272h-273zM762 653v273h272v-273h-272zM762 979v272h272v-272h-272zM1090 326v272h270v-272h-270zM1090 1307v272h270v-272h-270z" />
<glyph unicode="+" d="M109 653v273h272v-273h-272zM436 326v272h273v-272h-273zM436 653v273h273v-273h-273zM436 979v272h273v-272h-273zM762 653v273h272v-273h-272z" />
<glyph unicode="," horiz-adv-x="489" d="M109 0v272h272v-272h-272zM109 -55h272v-271h-272v271z" />
<glyph unicode="-" horiz-adv-x="817" d="M109 653v273h272v-273h-272zM436 653v273h273v-273h-273z" />
<glyph unicode="." horiz-adv-x="489" d="M109 0v272h272v-272h-272z" />
<glyph unicode="/" d="M109 0v272h272v-272h-272zM109 326v272h272v-272h-272zM436 653v273h273v-273h-273zM762 979v272h272v-272h-272zM762 1307v272h272v-272h-272z" />
<glyph unicode="0" d="M109 0v272h272v-272h-272zM109 326v272h272v-272h-272zM109 653v273h272v-273h-272zM109 979v272h272v-272h-272zM109 1307v272h272v-272h-272zM436 0v272h273v-272h-273zM436 1307v272h273v-272h-273zM762 0v272h272v-272h-272zM762 326v272h272v-272h-272zM762 653v273 h272v-273h-272zM762 979v272h272v-272h-272zM762 1307v272h272v-272h-272z" />
<glyph unicode="1" horiz-adv-x="489" d="M109 0v272h272v-272h-272zM109 326v272h272v-272h-272zM109 653v273h272v-273h-272zM109 979v272h272v-272h-272zM109 1307v272h272v-272h-272z" />
<glyph unicode="2" d="M109 0v272h272v-272h-272zM109 326v272h272v-272h-272zM109 653v273h272v-273h-272zM109 1307v272h272v-272h-272zM436 0v272h273v-272h-273zM436 653v273h273v-273h-273zM436 1307v272h273v-272h-273zM762 0v272h272v-272h-272zM762 653v273h272v-273h-272zM762 979v272 h272v-272h-272zM762 1307v272h272v-272h-272z" />
<glyph unicode="3" d="M109 0v272h272v-272h-272zM109 653v273h272v-273h-272zM109 1307v272h272v-272h-272zM436 0v272h273v-272h-273zM436 653v273h273v-273h-273zM436 1307v272h273v-272h-273zM762 0v272h272v-272h-272zM762 326v272h272v-272h-272zM762 653v273h272v-273h-272zM762 979v272 h272v-272h-272zM762 1307v272h272v-272h-272z" />
<glyph unicode="4" d="M109 653v273h272v-273h-272zM109 979v272h272v-272h-272zM109 1307v272h272v-272h-272zM436 653v273h273v-273h-273zM762 0v272h272v-272h-272zM762 326v272h272v-272h-272zM762 653v273h272v-273h-272zM762 979v272h272v-272h-272zM762 1307v272h272v-272h-272z" />
<glyph unicode="5" d="M109 0v272h272v-272h-272zM109 653v273h272v-273h-272zM109 979v272h272v-272h-272zM109 1307v272h272v-272h-272zM436 0v272h273v-272h-273zM436 653v273h273v-273h-273zM436 1307v272h273v-272h-273zM762 0v272h272v-272h-272zM762 326v272h272v-272h-272zM762 653v273 h272v-273h-272zM762 1307v272h272v-272h-272z" />
<glyph unicode="6" d="M109 0v272h272v-272h-272zM109 326v272h272v-272h-272zM109 653v273h272v-273h-272zM109 979v272h272v-272h-272zM109 1307v272h272v-272h-272zM436 0v272h273v-272h-273zM436 653v273h273v-273h-273zM436 1307v272h273v-272h-273zM762 0v272h272v-272h-272zM762 326v272 h272v-272h-272zM762 653v273h272v-273h-272zM762 1307v272h272v-272h-272z" />
<glyph unicode="7" d="M109 1307v272h272v-272h-272zM436 1307v272h273v-272h-273zM762 0v272h272v-272h-272zM762 326v272h272v-272h-272zM762 653v273h272v-273h-272zM762 979v272h272v-272h-272zM762 1307v272h272v-272h-272z" />
<glyph unicode="8" d="M109 0v272h272v-272h-272zM109 326v272h272v-272h-272zM109 653v273h272v-273h-272zM109 979v272h272v-272h-272zM109 1307v272h272v-272h-272zM436 0v272h273v-272h-273zM436 653v273h273v-273h-273zM436 1307v272h273v-272h-273zM762 0v272h272v-272h-272zM762 326v272 h272v-272h-272zM762 653v273h272v-273h-272zM762 979v272h272v-272h-272zM762 1307v272h272v-272h-272z" />
<glyph unicode="9" d="M109 0v272h272v-272h-272zM109 653v273h272v-273h-272zM109 979v272h272v-272h-272zM109 1307v272h272v-272h-272zM436 0v272h273v-272h-273zM436 653v273h273v-273h-273zM436 1307v272h273v-272h-273zM762 0v272h272v-272h-272zM762 326v272h272v-272h-272zM762 653v273 h272v-273h-272zM762 979v272h272v-272h-272zM762 1307v272h272v-272h-272z" />
<glyph unicode=":" horiz-adv-x="489" d="M109 0v272h272v-272h-272zM109 653v273h272v-273h-272z" />
<glyph unicode=";" horiz-adv-x="489" d="M109 0v272h272v-272h-272zM109 -55h272v-271h-272v271zM109 653v273h272v-273h-272z" />
<glyph unicode="&#x3c;" d="M109 653v273h272v-273h-272zM436 326v272h273v-272h-273zM436 979v272h273v-272h-273zM762 0v272h272v-272h-272zM762 1307v272h272v-272h-272z" />
<glyph unicode="=" d="M109 326v272h272v-272h-272zM109 979v272h272v-272h-272zM436 326v272h273v-272h-273zM436 979v272h273v-272h-273zM762 326v272h272v-272h-272zM762 979v272h272v-272h-272z" />
<glyph unicode="&#x3e;" d="M109 0v272h272v-272h-272zM109 1307v272h272v-272h-272zM436 326v272h273v-272h-273zM436 979v272h273v-272h-273zM762 653v273h272v-273h-272z" />
<glyph unicode="?" d="M109 1307v272h272v-272h-272zM436 0v272h273v-272h-273zM436 653v273h273v-273h-273zM436 1307v272h273v-272h-273zM762 653v273h272v-273h-272zM762 979v272h272v-272h-272zM762 1307v272h272v-272h-272z" />
<glyph unicode="@" horiz-adv-x="1470" d="M109 0v272h272v-272h-272zM109 -55h272v-271h-272v271zM109 326v272h272v-272h-272zM109 653v273h272v-273h-272zM109 979v272h272v-272h-272zM436 -55h273v-271h-273v271zM436 979v272h273v-272h-273zM762 -55h272v-271h-272v271zM762 326v272h272v-272h-272zM762 979 v272h272v-272h-272zM1090 -55h270v-271h-270v271zM1090 326v272h270v-272h-270zM1090 653v273h270v-273h-270zM1090 979v272h270v-272h-270z" />
<glyph unicode="A" d="M109 0v272h272v-272h-272zM109 326v272h272v-272h-272zM109 653v273h272v-273h-272zM109 979v272h272v-272h-272zM109 1307v272h272v-272h-272zM436 653v273h273v-273h-273zM436 1307v272h273v-272h-273zM762 0v272h272v-272h-272zM762 326v272h272v-272h-272zM762 653 v273h272v-273h-272zM762 979v272h272v-272h-272zM762 1307v272h272v-272h-272z" />
<glyph unicode="B" d="M109 0v272h272v-272h-272zM109 326v272h272v-272h-272zM109 653v273h272v-273h-272zM109 979v272h272v-272h-272zM109 1307v272h272v-272h-272zM436 0v272h273v-272h-273zM436 653v273h273v-273h-273zM436 1307v272h273v-272h-273zM762 0v272h272v-272h-272zM762 326v272 h272v-272h-272zM762 979v272h272v-272h-272zM762 1307v272h272v-272h-272z" />
<glyph unicode="C" d="M109 0v272h272v-272h-272zM109 326v272h272v-272h-272zM109 653v273h272v-273h-272zM109 979v272h272v-272h-272zM109 1307v272h272v-272h-272zM436 0v272h273v-272h-273zM436 1307v272h273v-272h-273zM762 0v272h272v-272h-272zM762 1307v272h272v-272h-272z" />
<glyph unicode="D" d="M109 0v272h272v-272h-272zM109 326v272h272v-272h-272zM109 653v273h272v-273h-272zM109 979v272h272v-272h-272zM109 1307v272h272v-272h-272zM436 0v272h273v-272h-273zM436 1307v272h273v-272h-273zM762 326v272h272v-272h-272zM762 653v273h272v-273h-272zM762 979 v272h272v-272h-272z" />
<glyph unicode="E" d="M109 0v272h272v-272h-272zM109 326v272h272v-272h-272zM109 653v273h272v-273h-272zM109 979v272h272v-272h-272zM109 1307v272h272v-272h-272zM436 0v272h273v-272h-273zM436 653v273h273v-273h-273zM436 1307v272h273v-272h-273zM762 0v272h272v-272h-272zM762 653v273 h272v-273h-272zM762 1307v272h272v-272h-272z" />
<glyph unicode="F" d="M109 0v272h272v-272h-272zM109 326v272h272v-272h-272zM109 653v273h272v-273h-272zM109 979v272h272v-272h-272zM109 1307v272h272v-272h-272zM436 653v273h273v-273h-273zM436 1307v272h273v-272h-273zM762 653v273h272v-273h-272zM762 1307v272h272v-272h-272z" />
<glyph unicode="G" d="M109 0v272h272v-272h-272zM109 326v272h272v-272h-272zM109 653v273h272v-273h-272zM109 979v272h272v-272h-272zM109 1307v272h272v-272h-272zM436 0v272h273v-272h-273zM436 1307v272h273v-272h-273zM762 0v272h272v-272h-272zM762 326v272h272v-272h-272zM762 653v273 h272v-273h-272zM762 1307v272h272v-272h-272z" />
<glyph unicode="H" d="M109 0v272h272v-272h-272zM109 326v272h272v-272h-272zM109 653v273h272v-273h-272zM109 979v272h272v-272h-272zM109 1307v272h272v-272h-272zM436 653v273h273v-273h-273zM762 0v272h272v-272h-272zM762 326v272h272v-272h-272zM762 653v273h272v-273h-272zM762 979 v272h272v-272h-272zM762 1307v272h272v-272h-272z" />
<glyph unicode="I" horiz-adv-x="489" d="M109 0v272h272v-272h-272zM109 326v272h272v-272h-272zM109 653v273h272v-273h-272zM109 979v272h272v-272h-272zM109 1307v272h272v-272h-272z" />
<glyph unicode="J" d="M109 0v272h272v-272h-272zM436 0v272h273v-272h-273zM762 0v272h272v-272h-272zM762 326v272h272v-272h-272zM762 653v273h272v-273h-272zM762 979v272h272v-272h-272zM762 1307v272h272v-272h-272z" />
<glyph unicode="K" d="M109 0v272h272v-272h-272zM109 326v272h272v-272h-272zM109 653v273h272v-273h-272zM109 979v272h272v-272h-272zM109 1307v272h272v-272h-272zM436 653v273h273v-273h-273zM762 0v272h272v-272h-272zM762 326v272h272v-272h-272zM762 979v272h272v-272h-272zM762 1307 v272h272v-272h-272z" />
<glyph unicode="L" d="M109 0v272h272v-272h-272zM109 326v272h272v-272h-272zM109 653v273h272v-273h-272zM109 979v272h272v-272h-272zM109 1307v272h272v-272h-272zM436 0v272h273v-272h-273zM762 0v272h272v-272h-272z" />
<glyph unicode="M" horiz-adv-x="1796" d="M109 0v272h272v-272h-272zM109 326v272h272v-272h-272zM109 653v273h272v-273h-272zM109 979v272h272v-272h-272zM109 1307v272h272v-272h-272zM436 1307v272h273v-272h-273zM762 0v272h272v-272h-272zM762 326v272h272v-272h-272zM762 653v273h272v-273h-272zM762 979 v272h272v-272h-272zM762 1307v272h272v-272h-272zM1090 1307v272h270v-272h-270zM1415 0v272h273v-272h-273zM1415 326v272h273v-272h-273zM1415 653v273h273v-273h-273zM1415 979v272h273v-272h-273zM1415 1307v272h273v-272h-273z" />
<glyph unicode="N" d="M109 0v272h272v-272h-272zM109 326v272h272v-272h-272zM109 653v273h272v-273h-272zM109 979v272h272v-272h-272zM109 1307v272h272v-272h-272zM436 1307v272h273v-272h-273zM762 0v272h272v-272h-272zM762 326v272h272v-272h-272zM762 653v273h272v-273h-272zM762 979 v272h272v-272h-272zM762 1307v272h272v-272h-272z" />
<glyph unicode="O" d="M109 0v272h272v-272h-272zM109 326v272h272v-272h-272zM109 653v273h272v-273h-272zM109 979v272h272v-272h-272zM109 1307v272h272v-272h-272zM436 0v272h273v-272h-273zM436 1307v272h273v-272h-273zM762 0v272h272v-272h-272zM762 326v272h272v-272h-272zM762 653v273 h272v-273h-272zM762 979v272h272v-272h-272zM762 1307v272h272v-272h-272z" />
<glyph unicode="P" d="M109 0v272h272v-272h-272zM109 326v272h272v-272h-272zM109 653v273h272v-273h-272zM109 979v272h272v-272h-272zM109 1307v272h272v-272h-272zM436 653v273h273v-273h-273zM436 1307v272h273v-272h-273zM762 653v273h272v-273h-272zM762 979v272h272v-272h-272z M762 1307v272h272v-272h-272z" />
<glyph unicode="Q" d="M109 0v272h272v-272h-272zM109 326v272h272v-272h-272zM109 653v273h272v-273h-272zM109 979v272h272v-272h-272zM109 1307v272h272v-272h-272zM436 0v272h273v-272h-273zM436 -55h273v-271h-273v271zM436 1307v272h273v-272h-273zM762 0v272h272v-272h-272zM762 326v272 h272v-272h-272zM762 653v273h272v-273h-272zM762 979v272h272v-272h-272zM762 1307v272h272v-272h-272z" />
<glyph unicode="R" d="M109 0v272h272v-272h-272zM109 326v272h272v-272h-272zM109 653v273h272v-273h-272zM109 979v272h272v-272h-272zM109 1307v272h272v-272h-272zM436 653v273h273v-273h-273zM436 1307v272h273v-272h-273zM762 0v272h272v-272h-272zM762 326v272h272v-272h-272zM762 979 v272h272v-272h-272zM762 1307v272h272v-272h-272z" />
<glyph unicode="S" d="M109 0v272h272v-272h-272zM109 653v273h272v-273h-272zM109 979v272h272v-272h-272zM109 1307v272h272v-272h-272zM436 0v272h273v-272h-273zM436 653v273h273v-273h-273zM436 1307v272h273v-272h-273zM762 0v272h272v-272h-272zM762 326v272h272v-272h-272zM762 653v273 h272v-273h-272zM762 1307v272h272v-272h-272z" />
<glyph unicode="T" d="M109 1307v272h272v-272h-272zM436 0v272h273v-272h-273zM436 326v272h273v-272h-273zM436 653v273h273v-273h-273zM436 979v272h273v-272h-273zM436 1307v272h273v-272h-273zM762 1307v272h272v-272h-272z" />
<glyph unicode="U" d="M109 0v272h272v-272h-272zM109 326v272h272v-272h-272zM109 653v273h272v-273h-272zM109 979v272h272v-272h-272zM109 1307v272h272v-272h-272zM436 0v272h273v-272h-273zM762 0v272h272v-272h-272zM762 326v272h272v-272h-272zM762 653v273h272v-273h-272zM762 979v272 h272v-272h-272zM762 1307v272h272v-272h-272z" />
<glyph unicode="V" d="M109 653v273h272v-273h-272zM109 979v272h272v-272h-272zM109 1307v272h272v-272h-272zM436 0v272h273v-272h-273zM436 326v272h273v-272h-273zM762 653v273h272v-273h-272zM762 979v272h272v-272h-272zM762 1307v272h272v-272h-272z" />
<glyph unicode="W" horiz-adv-x="1796" d="M109 0v272h272v-272h-272zM109 326v272h272v-272h-272zM109 653v273h272v-273h-272zM109 979v272h272v-272h-272zM109 1307v272h272v-272h-272zM436 0v272h273v-272h-273zM762 0v272h272v-272h-272zM762 326v272h272v-272h-272zM762 653v273h272v-273h-272zM762 979v272 h272v-272h-272zM762 1307v272h272v-272h-272zM1090 0v272h270v-272h-270zM1415 0v272h273v-272h-273zM1415 326v272h273v-272h-273zM1415 653v273h273v-273h-273zM1415 979v272h273v-272h-273zM1415 1307v272h273v-272h-273z" />
<glyph unicode="X" d="M109 0v272h272v-272h-272zM109 326v272h272v-272h-272zM109 979v272h272v-272h-272zM109 1307v272h272v-272h-272zM436 653v273h273v-273h-273zM762 0v272h272v-272h-272zM762 326v272h272v-272h-272zM762 979v272h272v-272h-272zM762 1307v272h272v-272h-272z" />
<glyph unicode="Y" d="M109 653v273h272v-273h-272zM109 979v272h272v-272h-272zM109 1307v272h272v-272h-272zM436 0v272h273v-272h-273zM436 326v272h273v-272h-273zM436 653v273h273v-273h-273zM762 653v273h272v-273h-272zM762 979v272h272v-272h-272zM762 1307v272h272v-272h-272z" />
<glyph unicode="Z" d="M109 0v272h272v-272h-272zM109 326v272h272v-272h-272zM109 1307v272h272v-272h-272zM436 0v272h273v-272h-273zM436 653v273h273v-273h-273zM436 1307v272h273v-272h-273zM762 0v272h272v-272h-272zM762 979v272h272v-272h-272zM762 1307v272h272v-272h-272z" />
<glyph unicode="[" horiz-adv-x="978" d="M272 0v272h273v-272h-273zM272 -55h273v-271h-273v271zM272 326v272h273v-272h-273zM272 653v273h273v-273h-273zM272 979v272h273v-272h-273zM272 1307v272h273v-272h-273zM272 1632v273h273v-273h-273zM598 -55h272v-271h-272v271zM598 1632v273h272v-273h-272z" />
<glyph unicode="\" d="M109 979v272h272v-272h-272zM109 1307v272h272v-272h-272zM436 653v273h273v-273h-273zM762 0v272h272v-272h-272zM762 326v272h272v-272h-272z" />
<glyph unicode="]" horiz-adv-x="978" d="M109 -55h272v-271h-272v271zM109 1632v273h272v-273h-272zM436 0v272h273v-272h-273zM436 -55h273v-271h-273v271zM436 326v272h273v-272h-273zM436 653v273h273v-273h-273zM436 979v272h273v-272h-273zM436 1307v272h273v-272h-273zM436 1632v273h273v-273h-273z" />
<glyph unicode="^" d="M109 979v272h272v-272h-272zM436 1307v272h273v-272h-273zM762 979v272h272v-272h-272z" />
<glyph unicode="_" d="M109 -55h272v-271h-272v271zM436 -55h273v-271h-273v271zM762 -55h272v-271h-272v271z" />
<glyph unicode="`" horiz-adv-x="737" d="M55 2077h291l227 -348h-247z" />
<glyph unicode="a" d="M109 0v272h272v-272h-272zM109 326v272h272v-272h-272zM109 653v273h272v-273h-272zM109 979v272h272v-272h-272zM109 1307v272h272v-272h-272zM436 653v273h273v-273h-273zM436 1307v272h273v-272h-273zM762 0v272h272v-272h-272zM762 326v272h272v-272h-272zM762 653 v273h272v-273h-272zM762 979v272h272v-272h-272zM762 1307v272h272v-272h-272z" />
<glyph unicode="b" d="M109 0v272h272v-272h-272zM109 326v272h272v-272h-272zM109 653v273h272v-273h-272zM109 979v272h272v-272h-272zM109 1307v272h272v-272h-272zM436 0v272h273v-272h-273zM436 653v273h273v-273h-273zM436 1307v272h273v-272h-273zM762 0v272h272v-272h-272zM762 326v272 h272v-272h-272zM762 979v272h272v-272h-272zM762 1307v272h272v-272h-272z" />
<glyph unicode="c" d="M109 0v272h272v-272h-272zM109 326v272h272v-272h-272zM109 653v273h272v-273h-272zM109 979v272h272v-272h-272zM109 1307v272h272v-272h-272zM436 0v272h273v-272h-273zM436 1307v272h273v-272h-273zM762 0v272h272v-272h-272zM762 1307v272h272v-272h-272z" />
<glyph unicode="d" d="M109 0v272h272v-272h-272zM109 326v272h272v-272h-272zM109 653v273h272v-273h-272zM109 979v272h272v-272h-272zM109 1307v272h272v-272h-272zM436 0v272h273v-272h-273zM436 1307v272h273v-272h-273zM762 326v272h272v-272h-272zM762 653v273h272v-273h-272zM762 979 v272h272v-272h-272z" />
<glyph unicode="e" d="M109 0v272h272v-272h-272zM109 326v272h272v-272h-272zM109 653v273h272v-273h-272zM109 979v272h272v-272h-272zM109 1307v272h272v-272h-272zM436 0v272h273v-272h-273zM436 653v273h273v-273h-273zM436 1307v272h273v-272h-273zM762 0v272h272v-272h-272zM762 653v273 h272v-273h-272zM762 1307v272h272v-272h-272z" />
<glyph unicode="f" d="M109 0v272h272v-272h-272zM109 326v272h272v-272h-272zM109 653v273h272v-273h-272zM109 979v272h272v-272h-272zM109 1307v272h272v-272h-272zM436 653v273h273v-273h-273zM436 1307v272h273v-272h-273zM762 653v273h272v-273h-272zM762 1307v272h272v-272h-272z" />
<glyph unicode="g" d="M109 0v272h272v-272h-272zM109 326v272h272v-272h-272zM109 653v273h272v-273h-272zM109 979v272h272v-272h-272zM109 1307v272h272v-272h-272zM436 0v272h273v-272h-273zM436 1307v272h273v-272h-273zM762 0v272h272v-272h-272zM762 326v272h272v-272h-272zM762 653v273 h272v-273h-272zM762 1307v272h272v-272h-272z" />
<glyph unicode="h" d="M109 0v272h272v-272h-272zM109 326v272h272v-272h-272zM109 653v273h272v-273h-272zM109 979v272h272v-272h-272zM109 1307v272h272v-272h-272zM436 653v273h273v-273h-273zM762 0v272h272v-272h-272zM762 326v272h272v-272h-272zM762 653v273h272v-273h-272zM762 979 v272h272v-272h-272zM762 1307v272h272v-272h-272z" />
<glyph unicode="i" horiz-adv-x="489" d="M109 0v272h272v-272h-272zM109 326v272h272v-272h-272zM109 653v273h272v-273h-272zM109 979v272h272v-272h-272zM109 1307v272h272v-272h-272z" />
<glyph unicode="j" d="M109 0v272h272v-272h-272zM436 0v272h273v-272h-273zM762 0v272h272v-272h-272zM762 326v272h272v-272h-272zM762 653v273h272v-273h-272zM762 979v272h272v-272h-272zM762 1307v272h272v-272h-272z" />
<glyph unicode="k" d="M109 0v272h272v-272h-272zM109 326v272h272v-272h-272zM109 653v273h272v-273h-272zM109 979v272h272v-272h-272zM109 1307v272h272v-272h-272zM436 653v273h273v-273h-273zM762 0v272h272v-272h-272zM762 326v272h272v-272h-272zM762 979v272h272v-272h-272zM762 1307 v272h272v-272h-272z" />
<glyph unicode="l" d="M109 0v272h272v-272h-272zM109 326v272h272v-272h-272zM109 653v273h272v-273h-272zM109 979v272h272v-272h-272zM109 1307v272h272v-272h-272zM436 0v272h273v-272h-273zM762 0v272h272v-272h-272z" />
<glyph unicode="m" horiz-adv-x="1796" d="M109 0v272h272v-272h-272zM109 326v272h272v-272h-272zM109 653v273h272v-273h-272zM109 979v272h272v-272h-272zM109 1307v272h272v-272h-272zM436 1307v272h273v-272h-273zM762 0v272h272v-272h-272zM762 326v272h272v-272h-272zM762 653v273h272v-273h-272zM762 979 v272h272v-272h-272zM762 1307v272h272v-272h-272zM1090 1307v272h270v-272h-270zM1415 0v272h273v-272h-273zM1415 326v272h273v-272h-273zM1415 653v273h273v-273h-273zM1415 979v272h273v-272h-273zM1415 1307v272h273v-272h-273z" />
<glyph unicode="n" d="M109 0v272h272v-272h-272zM109 326v272h272v-272h-272zM109 653v273h272v-273h-272zM109 979v272h272v-272h-272zM109 1307v272h272v-272h-272zM436 1307v272h273v-272h-273zM762 0v272h272v-272h-272zM762 326v272h272v-272h-272zM762 653v273h272v-273h-272zM762 979 v272h272v-272h-272zM762 1307v272h272v-272h-272z" />
<glyph unicode="o" d="M109 0v272h272v-272h-272zM109 326v272h272v-272h-272zM109 653v273h272v-273h-272zM109 979v272h272v-272h-272zM109 1307v272h272v-272h-272zM436 0v272h273v-272h-273zM436 1307v272h273v-272h-273zM762 0v272h272v-272h-272zM762 326v272h272v-272h-272zM762 653v273 h272v-273h-272zM762 979v272h272v-272h-272zM762 1307v272h272v-272h-272z" />
<glyph unicode="p" d="M109 0v272h272v-272h-272zM109 326v272h272v-272h-272zM109 653v273h272v-273h-272zM109 979v272h272v-272h-272zM109 1307v272h272v-272h-272zM436 653v273h273v-273h-273zM436 1307v272h273v-272h-273zM762 653v273h272v-273h-272zM762 979v272h272v-272h-272z M762 1307v272h272v-272h-272z" />
<glyph unicode="q" d="M109 0v272h272v-272h-272zM109 326v272h272v-272h-272zM109 653v273h272v-273h-272zM109 979v272h272v-272h-272zM109 1307v272h272v-272h-272zM436 0v272h273v-272h-273zM436 -55h273v-271h-273v271zM436 1307v272h273v-272h-273zM762 0v272h272v-272h-272zM762 326v272 h272v-272h-272zM762 653v273h272v-273h-272zM762 979v272h272v-272h-272zM762 1307v272h272v-272h-272z" />
<glyph unicode="r" d="M109 0v272h272v-272h-272zM109 326v272h272v-272h-272zM109 653v273h272v-273h-272zM109 979v272h272v-272h-272zM109 1307v272h272v-272h-272zM436 653v273h273v-273h-273zM436 1307v272h273v-272h-273zM762 0v272h272v-272h-272zM762 326v272h272v-272h-272zM762 979 v272h272v-272h-272zM762 1307v272h272v-272h-272z" />
<glyph unicode="s" d="M109 0v272h272v-272h-272zM109 653v273h272v-273h-272zM109 979v272h272v-272h-272zM109 1307v272h272v-272h-272zM436 0v272h273v-272h-273zM436 653v273h273v-273h-273zM436 1307v272h273v-272h-273zM762 0v272h272v-272h-272zM762 326v272h272v-272h-272zM762 653v273 h272v-273h-272zM762 1307v272h272v-272h-272z" />
<glyph unicode="t" d="M109 1307v272h272v-272h-272zM436 0v272h273v-272h-273zM436 326v272h273v-272h-273zM436 653v273h273v-273h-273zM436 979v272h273v-272h-273zM436 1307v272h273v-272h-273zM762 1307v272h272v-272h-272z" />
<glyph unicode="u" d="M109 0v272h272v-272h-272zM109 326v272h272v-272h-272zM109 653v273h272v-273h-272zM109 979v272h272v-272h-272zM109 1307v272h272v-272h-272zM436 0v272h273v-272h-273zM762 0v272h272v-272h-272zM762 326v272h272v-272h-272zM762 653v273h272v-273h-272zM762 979v272 h272v-272h-272zM762 1307v272h272v-272h-272z" />
<glyph unicode="v" d="M109 653v273h272v-273h-272zM109 979v272h272v-272h-272zM109 1307v272h272v-272h-272zM436 0v272h273v-272h-273zM436 326v272h273v-272h-273zM762 653v273h272v-273h-272zM762 979v272h272v-272h-272zM762 1307v272h272v-272h-272z" />
<glyph unicode="w" horiz-adv-x="1796" d="M109 0v272h272v-272h-272zM109 326v272h272v-272h-272zM109 653v273h272v-273h-272zM109 979v272h272v-272h-272zM109 1307v272h272v-272h-272zM436 0v272h273v-272h-273zM762 0v272h272v-272h-272zM762 326v272h272v-272h-272zM762 653v273h272v-273h-272zM762 979v272 h272v-272h-272zM762 1307v272h272v-272h-272zM1090 0v272h270v-272h-270zM1415 0v272h273v-272h-273zM1415 326v272h273v-272h-273zM1415 653v273h273v-273h-273zM1415 979v272h273v-272h-273zM1415 1307v272h273v-272h-273z" />
<glyph unicode="x" d="M109 0v272h272v-272h-272zM109 326v272h272v-272h-272zM109 979v272h272v-272h-272zM109 1307v272h272v-272h-272zM436 653v273h273v-273h-273zM762 0v272h272v-272h-272zM762 326v272h272v-272h-272zM762 979v272h272v-272h-272zM762 1307v272h272v-272h-272z" />
<glyph unicode="y" d="M109 653v273h272v-273h-272zM109 979v272h272v-272h-272zM109 1307v272h272v-272h-272zM436 0v272h273v-272h-273zM436 326v272h273v-272h-273zM436 653v273h273v-273h-273zM762 653v273h272v-273h-272zM762 979v272h272v-272h-272zM762 1307v272h272v-272h-272z" />
<glyph unicode="z" d="M109 0v272h272v-272h-272zM109 326v272h272v-272h-272zM109 1307v272h272v-272h-272zM436 0v272h273v-272h-273zM436 653v273h273v-273h-273zM436 1307v272h273v-272h-273zM762 0v272h272v-272h-272zM762 979v272h272v-272h-272zM762 1307v272h272v-272h-272z" />
<glyph unicode="{" d="M109 653v273h272v-273h-272zM436 0v272h273v-272h-273zM436 -55h273v-271h-273v271zM436 326v272h273v-272h-273zM436 979v272h273v-272h-273zM436 1307v272h273v-272h-273zM436 1632v273h273v-273h-273zM762 -55h272v-271h-272v271zM762 1632v273h272v-273h-272z" />
<glyph unicode="|" horiz-adv-x="817" d="M272 0v272h273v-272h-273zM272 -55h273v-271h-273v271zM272 326v272h273v-272h-273zM272 653v273h273v-273h-273zM272 979v272h273v-272h-273zM272 1307v272h273v-272h-273zM272 1632v273h273v-273h-273z" />
<glyph unicode="}" d="M109 -55h272v-271h-272v271zM109 1632v273h272v-273h-272zM436 0v272h273v-272h-273zM436 -55h273v-271h-273v271zM436 326v272h273v-272h-273zM436 979v272h273v-272h-273zM436 1307v272h273v-272h-273zM436 1632v273h273v-273h-273zM762 653v273h272v-273h-272z" />
<glyph unicode="~" horiz-adv-x="1470" d="M109 473v272h272v-272h-272zM436 801v272h273v-272h-273zM762 473v272h272v-272h-272zM1090 801v272h270v-272h-270z" />
<glyph unicode="&#xa1;" horiz-adv-x="489" d="M109 0v272h272v-272h-272zM109 -55h272v-271h-272v271zM109 326v272h272v-272h-272zM109 979v272h272v-272h-272z" />
<glyph unicode="&#xa2;" d="M109 326v272h272v-272h-272zM109 653v273h272v-273h-272zM109 979v272h272v-272h-272zM436 0v272h273v-272h-273zM436 326v272h273v-272h-273zM436 979v272h273v-272h-273zM436 1307v272h273v-272h-273zM762 326v272h272v-272h-272zM762 979v272h272v-272h-272z" />
<glyph unicode="&#xa3;" horiz-adv-x="1470" d="M109 0v272h272v-272h-272zM109 653v273h272v-273h-272zM436 0v272h273v-272h-273zM436 326v272h273v-272h-273zM436 653v273h273v-273h-273zM436 979v272h273v-272h-273zM436 1307v272h273v-272h-273zM762 0v272h272v-272h-272zM762 653v273h272v-273h-272zM762 1307v272 h272v-272h-272zM1090 0v272h270v-272h-270zM1090 1307v272h270v-272h-270z" />
<glyph unicode="&#xa5;" d="M109 326v272h272v-272h-272zM109 979v272h272v-272h-272zM109 1307v272h272v-272h-272zM436 0v272h273v-272h-273zM436 326v272h273v-272h-273zM436 653v273h273v-273h-273zM762 326v272h272v-272h-272zM762 979v272h272v-272h-272zM762 1307v272h272v-272h-272z" />
<glyph unicode="&#xa6;" horiz-adv-x="817" d="M272 0v272h273v-272h-273zM272 -55h273v-271h-273v271zM272 326v272h273v-272h-273zM272 979v272h273v-272h-273zM272 1307v272h273v-272h-273zM272 1632v273h273v-273h-273z" />
<glyph unicode="&#xa7;" d="M109 -55h272v-271h-272v271zM109 326v272h272v-272h-272zM109 653v273h272v-273h-272zM109 979v272h272v-272h-272zM109 1307v272h272v-272h-272zM109 1632v273h272v-273h-272zM436 -55h273v-271h-273v271zM436 326v272h273v-272h-273zM436 979v272h273v-272h-273z M436 1632v273h273v-273h-273zM762 0v272h272v-272h-272zM762 -55h272v-271h-272v271zM762 326v272h272v-272h-272zM762 653v273h272v-273h-272zM762 979v272h272v-272h-272zM762 1632v273h272v-273h-272z" />
<glyph unicode="&#xa8;" horiz-adv-x="1007" d="M109 1769v273h272v-273h-272zM627 1769v273h272v-273h-272z" />
<glyph unicode="&#xaa;" d="M109 326v272h272v-272h-272zM109 653v273h272v-273h-272zM109 1307v272h272v-272h-272zM436 326v272h273v-272h-273zM436 979v272h273v-272h-273zM436 1307v272h273v-272h-273zM762 326v272h272v-272h-272zM762 653v273h272v-273h-272zM762 979v272h272v-272h-272z M762 1307v272h272v-272h-272z" />
<glyph unicode="&#xab;" horiz-adv-x="1523" d="M109 653v273h272v-273h-272zM436 326v272h273v-272h-273zM436 979v272h273v-272h-273zM818 653v273h272v-273h-272zM1145 326v272h273v-272h-273zM1145 979v272h273v-272h-273z" />
<glyph unicode="&#xac;" d="M109 653v273h272v-273h-272zM436 653v273h273v-273h-273zM762 0v272h272v-272h-272zM762 326v272h272v-272h-272zM762 653v273h272v-273h-272z" />
<glyph unicode="&#xad;" horiz-adv-x="817" d="M109 653v273h272v-273h-272zM436 653v273h273v-273h-273z" />
<glyph unicode="&#xaf;" d="M109 1769v273h272v-273h-272zM436 1769v273h273v-273h-273zM762 1769v273h272v-273h-272z" />
<glyph unicode="&#xb0;" horiz-adv-x="598" d="M164 1307v272h272v-272h-272z" />
<glyph unicode="&#xb1;" d="M109 0v272h272v-272h-272zM109 653v273h272v-273h-272zM436 0v272h273v-272h-273zM436 326v272h273v-272h-273zM436 653v273h273v-273h-273zM436 979v272h273v-272h-273zM762 0v272h272v-272h-272zM762 653v273h272v-273h-272z" />
<glyph unicode="&#xb2;" horiz-adv-x="772" d="M109 653v557h370v186h-370v183h555v-553h-369v-185h369v-188h-555z" />
<glyph unicode="&#xb3;" horiz-adv-x="772" d="M109 653v188h370v185h-370v184h370v186h-370v183h555v-926h-555z" />
<glyph unicode="&#xb4;" horiz-adv-x="737" d="M164 1729l227 348h293l-272 -348h-248z" />
<glyph unicode="&#xb6;" horiz-adv-x="1470" d="M109 653v273h272v-273h-272zM109 979v272h272v-272h-272zM109 1307v272h272v-272h-272zM436 0v272h273v-272h-273zM436 -55h273v-271h-273v271zM436 326v272h273v-272h-273zM436 653v273h273v-273h-273zM436 979v272h273v-272h-273zM436 1307v272h273v-272h-273z M762 1307v272h272v-272h-272zM1090 0v272h270v-272h-270zM1090 -55h270v-271h-270v271zM1090 326v272h270v-272h-270zM1090 653v273h270v-273h-270zM1090 979v272h270v-272h-270zM1090 1307v272h270v-272h-270z" />
<glyph unicode="&#xb7;" horiz-adv-x="489" d="M109 653v273h272v-273h-272z" />
<glyph unicode="&#xb8;" horiz-adv-x="489" d="M109 -55h272v-271h-272v271z" />
<glyph unicode="&#xb9;" horiz-adv-x="403" d="M109 653v926h186v-926h-186z" />
<glyph unicode="&#xba;" d="M109 326v272h272v-272h-272zM109 653v273h272v-273h-272zM109 979v272h272v-272h-272zM109 1307v272h272v-272h-272zM436 326v272h273v-272h-273zM436 1307v272h273v-272h-273zM762 326v272h272v-272h-272zM762 653v273h272v-273h-272zM762 979v272h272v-272h-272z M762 1307v272h272v-272h-272z" />
<glyph unicode="&#xbb;" horiz-adv-x="1523" d="M109 326v272h272v-272h-272zM109 979v272h272v-272h-272zM436 653v273h273v-273h-273zM818 326v272h272v-272h-272zM818 979v272h272v-272h-272zM1145 653v273h273v-273h-273z" />
<glyph unicode="&#xbc;" horiz-adv-x="2078" d="M109 0v272h272v-272h-272zM197 653v926h186v-926h-186zM436 326v272h271v-272h-271zM762 653v273h272v-273h-272zM1090 979v272h270v-272h-270zM1415 1307v272h273v-272h-273zM1416 373v553h186v-369h184v369h185v-926h-185v373h-370z" />
<glyph unicode="&#xbd;" horiz-adv-x="2078" d="M109 0v272h272v-272h-272zM197 653v926h186v-926h-186zM436 326v272h271v-272h-271zM762 653v273h272v-273h-272zM1090 979v272h270v-272h-270zM1415 1307v272h273v-272h-273zM1416 0v557h370v186h-370v183h555v-553h-369v-185h369v-188h-555z" />
<glyph unicode="&#xbe;" horiz-adv-x="2361" d="M109 653v188h370v185h-370v184h370v186h-370v183h555v-926h-555zM392 0v272h272v-272h-272zM719 326v272h271v-272h-271zM1045 653v273h272v-273h-272zM1373 979v272h270v-272h-270zM1698 373v553h186v-369h184v369h185v-926h-185v373h-370zM1698 1307v272h273v-272h-273 z" />
<glyph unicode="&#xbf;" d="M109 0v272h272v-272h-272zM109 -55h272v-271h-272v271zM109 326v272h272v-272h-272zM436 -55h273v-271h-273v271zM436 326v272h273v-272h-273zM436 979v272h273v-272h-273zM762 -55h272v-271h-272v271z" />
<glyph unicode="&#xc0;" d="M109 0v272h272v-272h-272zM109 326v272h272v-272h-272zM109 653v273h272v-273h-272zM109 979v272h272v-272h-272zM109 1307v272h272v-272h-272zM174 2077h291l227 -348h-247zM436 653v273h273v-273h-273zM436 1307v272h273v-272h-273zM762 0v272h272v-272h-272zM762 326 v272h272v-272h-272zM762 653v273h272v-273h-272zM762 979v272h272v-272h-272zM762 1307v272h272v-272h-272z" />
<glyph unicode="&#xc1;" d="M109 0v272h272v-272h-272zM109 326v272h272v-272h-272zM109 653v273h272v-273h-272zM109 979v272h272v-272h-272zM109 1307v272h272v-272h-272zM436 653v273h273v-273h-273zM436 1307v272h273v-272h-273zM447 1729l227 348h293l-272 -348h-248zM762 0v272h272v-272h-272z M762 326v272h272v-272h-272zM762 653v273h272v-273h-272zM762 979v272h272v-272h-272zM762 1307v272h272v-272h-272z" />
<glyph unicode="&#xc2;" d="M109 0v272h272v-272h-272zM109 326v272h272v-272h-272zM109 653v273h272v-273h-272zM109 979v272h272v-272h-272zM109 1307v272h272v-272h-272zM197 1729l229 348h291l229 -348h-262l-115 192l-110 -192h-262zM436 653v273h273v-273h-273zM436 1307v272h273v-272h-273z M762 0v272h272v-272h-272zM762 326v272h272v-272h-272zM762 653v273h272v-273h-272zM762 979v272h272v-272h-272zM762 1307v272h272v-272h-272z" />
<glyph unicode="&#xc3;" d="M109 0v272h272v-272h-272zM109 326v272h272v-272h-272zM109 653v273h272v-273h-272zM109 979v272h272v-272h-272zM109 1307v272h272v-272h-272zM109 1769v273h272v-273h-272zM436 653v273h273v-273h-273zM436 1307v272h273v-272h-273zM436 1769v273h273v-273h-273zM762 0 v272h272v-272h-272zM762 326v272h272v-272h-272zM762 653v273h272v-273h-272zM762 979v272h272v-272h-272zM762 1307v272h272v-272h-272zM762 1769v273h272v-273h-272z" />
<glyph unicode="&#xc4;" d="M109 0v272h272v-272h-272zM109 326v272h272v-272h-272zM109 653v273h272v-273h-272zM109 979v272h272v-272h-272zM109 1307v272h272v-272h-272zM177 1769v273h272v-273h-272zM436 653v273h273v-273h-273zM436 1307v272h273v-272h-273zM695 1769v273h272v-273h-272zM762 0 v272h272v-272h-272zM762 326v272h272v-272h-272zM762 653v273h272v-273h-272zM762 979v272h272v-272h-272zM762 1307v272h272v-272h-272z" />
<glyph unicode="&#xc5;" d="M109 0v272h272v-272h-272zM109 326v272h272v-272h-272zM109 653v273h272v-273h-272zM109 979v272h272v-272h-272zM109 1307v272h272v-272h-272zM314 1632v445h514v-445h-514zM436 653v273h273v-273h-273zM436 1307v272h273v-272h-273zM477 1788h189v133h-189v-133zM762 0 v272h272v-272h-272zM762 326v272h272v-272h-272zM762 653v273h272v-273h-272zM762 979v272h272v-272h-272zM762 1307v272h272v-272h-272z" />
<glyph unicode="&#xc6;" horiz-adv-x="1796" d="M109 0v272h272v-272h-272zM109 326v272h272v-272h-272zM109 653v273h272v-273h-272zM109 979v272h272v-272h-272zM109 1307v272h272v-272h-272zM436 653v273h273v-273h-273zM436 1307v272h273v-272h-273zM762 0v272h272v-272h-272zM762 326v272h272v-272h-272zM762 653 v273h272v-273h-272zM762 979v272h272v-272h-272zM762 1307v272h272v-272h-272zM1090 0v272h270v-272h-270zM1090 653v273h270v-273h-270zM1090 1307v272h270v-272h-270zM1415 0v272h273v-272h-273zM1415 653v273h273v-273h-273zM1415 1307v272h273v-272h-273z" />
<glyph unicode="&#xc7;" d="M109 0v272h272v-272h-272zM109 326v272h272v-272h-272zM109 653v273h272v-273h-272zM109 979v272h272v-272h-272zM109 1307v272h272v-272h-272zM435 -55h272v-271h-272v271zM436 0v272h273v-272h-273zM436 1307v272h273v-272h-273zM762 0v272h272v-272h-272zM762 1307 v272h272v-272h-272z" />
<glyph unicode="&#xc8;" d="M109 0v272h272v-272h-272zM109 326v272h272v-272h-272zM109 653v273h272v-273h-272zM109 979v272h272v-272h-272zM109 1307v272h272v-272h-272zM174 2077h291l227 -348h-247zM436 0v272h273v-272h-273zM436 653v273h273v-273h-273zM436 1307v272h273v-272h-273zM762 0 v272h272v-272h-272zM762 653v273h272v-273h-272zM762 1307v272h272v-272h-272z" />
<glyph unicode="&#xc9;" d="M109 0v272h272v-272h-272zM109 326v272h272v-272h-272zM109 653v273h272v-273h-272zM109 979v272h272v-272h-272zM109 1307v272h272v-272h-272zM436 0v272h273v-272h-273zM436 653v273h273v-273h-273zM436 1307v272h273v-272h-273zM447 1729l227 348h293l-272 -348h-248z M762 0v272h272v-272h-272zM762 653v273h272v-273h-272zM762 1307v272h272v-272h-272z" />
<glyph unicode="&#xca;" d="M109 0v272h272v-272h-272zM109 326v272h272v-272h-272zM109 653v273h272v-273h-272zM109 979v272h272v-272h-272zM109 1307v272h272v-272h-272zM197 1729l229 348h291l229 -348h-262l-115 192l-110 -192h-262zM436 0v272h273v-272h-273zM436 653v273h273v-273h-273z M436 1307v272h273v-272h-273zM762 0v272h272v-272h-272zM762 653v273h272v-273h-272zM762 1307v272h272v-272h-272z" />
<glyph unicode="&#xcb;" d="M109 0v272h272v-272h-272zM109 326v272h272v-272h-272zM109 653v273h272v-273h-272zM109 979v272h272v-272h-272zM109 1307v272h272v-272h-272zM177 1769v273h272v-273h-272zM436 0v272h273v-272h-273zM436 653v273h273v-273h-273zM436 1307v272h273v-272h-273zM695 1769 v273h272v-273h-272zM762 0v272h272v-272h-272zM762 653v273h272v-273h-272zM762 1307v272h272v-272h-272z" />
<glyph unicode="&#xcc;" horiz-adv-x="489" d="M-148 2077h291l227 -348h-247zM109 0v272h272v-272h-272zM109 326v272h272v-272h-272zM109 653v273h272v-273h-272zM109 979v272h272v-272h-272zM109 1307v272h272v-272h-272z" />
<glyph unicode="&#xcd;" horiz-adv-x="489" d="M109 0v272h272v-272h-272zM109 326v272h272v-272h-272zM109 653v273h272v-273h-272zM109 979v272h272v-272h-272zM109 1307v272h272v-272h-272zM125 1729l227 348h293l-272 -348h-248z" />
<glyph unicode="&#xce;" horiz-adv-x="489" d="M-127 1729l229 348h291l229 -348h-262l-115 192l-110 -192h-262zM109 0v272h272v-272h-272zM109 326v272h272v-272h-272zM109 653v273h272v-273h-272zM109 979v272h272v-272h-272zM109 1307v272h272v-272h-272z" />
<glyph unicode="&#xcf;" horiz-adv-x="489" d="M-147 1769v273h272v-273h-272zM109 0v272h272v-272h-272zM109 326v272h272v-272h-272zM109 653v273h272v-273h-272zM109 979v272h272v-272h-272zM109 1307v272h272v-272h-272zM371 1769v273h272v-273h-272z" />
<glyph unicode="&#xd0;" horiz-adv-x="1441" d="M82 653v273h272v-273h-272zM408 0v272h272v-272h-272zM408 326v272h272v-272h-272zM408 653v273h272v-273h-272zM408 979v272h272v-272h-272zM408 1307v272h272v-272h-272zM735 0v272h273v-272h-273zM735 1307v272h273v-272h-273zM1061 326v272h272v-272h-272zM1061 653 v273h272v-273h-272zM1061 979v272h272v-272h-272z" />
<glyph unicode="&#xd1;" d="M109 0v272h272v-272h-272zM109 326v272h272v-272h-272zM109 653v273h272v-273h-272zM109 979v272h272v-272h-272zM109 1307v272h272v-272h-272zM109 1769v273h272v-273h-272zM436 1307v272h273v-272h-273zM436 1769v273h273v-273h-273zM762 0v272h272v-272h-272zM762 326 v272h272v-272h-272zM762 653v273h272v-273h-272zM762 979v272h272v-272h-272zM762 1307v272h272v-272h-272zM762 1769v273h272v-273h-272z" />
<glyph unicode="&#xd2;" d="M109 0v272h272v-272h-272zM109 326v272h272v-272h-272zM109 653v273h272v-273h-272zM109 979v272h272v-272h-272zM109 1307v272h272v-272h-272zM174 2077h291l227 -348h-247zM436 0v272h273v-272h-273zM436 1307v272h273v-272h-273zM762 0v272h272v-272h-272zM762 326 v272h272v-272h-272zM762 653v273h272v-273h-272zM762 979v272h272v-272h-272zM762 1307v272h272v-272h-272z" />
<glyph unicode="&#xd3;" d="M109 0v272h272v-272h-272zM109 326v272h272v-272h-272zM109 653v273h272v-273h-272zM109 979v272h272v-272h-272zM109 1307v272h272v-272h-272zM436 0v272h273v-272h-273zM436 1307v272h273v-272h-273zM447 1729l227 348h293l-272 -348h-248zM762 0v272h272v-272h-272z M762 326v272h272v-272h-272zM762 653v273h272v-273h-272zM762 979v272h272v-272h-272zM762 1307v272h272v-272h-272z" />
<glyph unicode="&#xd4;" d="M109 0v272h272v-272h-272zM109 326v272h272v-272h-272zM109 653v273h272v-273h-272zM109 979v272h272v-272h-272zM109 1307v272h272v-272h-272zM197 1729l229 348h291l229 -348h-262l-115 192l-110 -192h-262zM436 0v272h273v-272h-273zM436 1307v272h273v-272h-273z M762 0v272h272v-272h-272zM762 326v272h272v-272h-272zM762 653v273h272v-273h-272zM762 979v272h272v-272h-272zM762 1307v272h272v-272h-272z" />
<glyph unicode="&#xd5;" d="M109 0v272h272v-272h-272zM109 326v272h272v-272h-272zM109 653v273h272v-273h-272zM109 979v272h272v-272h-272zM109 1307v272h272v-272h-272zM109 1769v273h272v-273h-272zM436 0v272h273v-272h-273zM436 1307v272h273v-272h-273zM436 1769v273h273v-273h-273zM762 0 v272h272v-272h-272zM762 326v272h272v-272h-272zM762 653v273h272v-273h-272zM762 979v272h272v-272h-272zM762 1307v272h272v-272h-272zM762 1769v273h272v-273h-272z" />
<glyph unicode="&#xd6;" d="M109 0v272h272v-272h-272zM109 326v272h272v-272h-272zM109 653v273h272v-273h-272zM109 979v272h272v-272h-272zM109 1307v272h272v-272h-272zM177 1769v273h272v-273h-272zM436 0v272h273v-272h-273zM436 1307v272h273v-272h-273zM695 1769v273h272v-273h-272zM762 0 v272h272v-272h-272zM762 326v272h272v-272h-272zM762 653v273h272v-273h-272zM762 979v272h272v-272h-272zM762 1307v272h272v-272h-272z" />
<glyph unicode="&#xd7;" d="M109 326v272h272v-272h-272zM109 979v272h272v-272h-272zM436 653v273h273v-273h-273zM762 326v272h272v-272h-272zM762 979v272h272v-272h-272z" />
<glyph unicode="&#xd8;" d="M109 0v272h272v-272h-272zM109 -55h272v-271h-272v271zM109 326v272h272v-272h-272zM109 653v273h272v-273h-272zM109 979v272h272v-272h-272zM109 1307v272h272v-272h-272zM436 0v272h273v-272h-273zM436 653v273h273v-273h-273zM436 1307v272h273v-272h-273zM762 0v272 h272v-272h-272zM762 326v272h272v-272h-272zM762 653v273h272v-273h-272zM762 979v272h272v-272h-272zM762 1307v272h272v-272h-272zM762 1632v273h272v-273h-272z" />
<glyph unicode="&#xd9;" d="M109 0v272h272v-272h-272zM109 326v272h272v-272h-272zM109 653v273h272v-273h-272zM109 979v272h272v-272h-272zM109 1307v272h272v-272h-272zM174 2077h291l227 -348h-247zM436 0v272h273v-272h-273zM762 0v272h272v-272h-272zM762 326v272h272v-272h-272zM762 653v273 h272v-273h-272zM762 979v272h272v-272h-272zM762 1307v272h272v-272h-272z" />
<glyph unicode="&#xda;" d="M109 0v272h272v-272h-272zM109 326v272h272v-272h-272zM109 653v273h272v-273h-272zM109 979v272h272v-272h-272zM109 1307v272h272v-272h-272zM436 0v272h273v-272h-273zM447 1729l227 348h293l-272 -348h-248zM762 0v272h272v-272h-272zM762 326v272h272v-272h-272z M762 653v273h272v-273h-272zM762 979v272h272v-272h-272zM762 1307v272h272v-272h-272z" />
<glyph unicode="&#xdb;" d="M109 0v272h272v-272h-272zM109 326v272h272v-272h-272zM109 653v273h272v-273h-272zM109 979v272h272v-272h-272zM109 1307v272h272v-272h-272zM197 1729l229 348h291l229 -348h-262l-115 192l-110 -192h-262zM436 0v272h273v-272h-273zM762 0v272h272v-272h-272z M762 326v272h272v-272h-272zM762 653v273h272v-273h-272zM762 979v272h272v-272h-272zM762 1307v272h272v-272h-272z" />
<glyph unicode="&#xdc;" d="M109 0v272h272v-272h-272zM109 326v272h272v-272h-272zM109 653v273h272v-273h-272zM109 979v272h272v-272h-272zM109 1307v272h272v-272h-272zM177 1769v273h272v-273h-272zM436 0v272h273v-272h-273zM695 1769v273h272v-273h-272zM762 0v272h272v-272h-272zM762 326 v272h272v-272h-272zM762 653v273h272v-273h-272zM762 979v272h272v-272h-272zM762 1307v272h272v-272h-272z" />
<glyph unicode="&#xdd;" d="M109 653v273h272v-273h-272zM109 979v272h272v-272h-272zM109 1307v272h272v-272h-272zM436 0v272h273v-272h-273zM436 326v272h273v-272h-273zM436 653v273h273v-273h-273zM447 1729l227 348h293l-272 -348h-248zM762 653v273h272v-273h-272zM762 979v272h272v-272h-272 zM762 1307v272h272v-272h-272z" />
<glyph unicode="&#xde;" d="M109 0v272h272v-272h-272zM109 326v272h272v-272h-272zM109 653v273h272v-273h-272zM109 979v272h272v-272h-272zM109 1307v272h272v-272h-272zM436 326v272h273v-272h-273zM436 979v272h273v-272h-273zM762 326v272h272v-272h-272zM762 653v273h272v-273h-272zM762 979 v272h272v-272h-272z" />
<glyph unicode="&#xdf;" horiz-adv-x="2285" d="M109 0v272h272v-272h-272zM109 653v273h272v-273h-272zM109 979v272h272v-272h-272zM109 1307v272h272v-272h-272zM436 0v272h273v-272h-273zM436 653v273h273v-273h-273zM436 1307v272h273v-272h-273zM762 0v272h272v-272h-272zM762 326v272h272v-272h-272zM762 653v273 h272v-273h-272zM762 1307v272h272v-272h-272zM1252 0v272h272v-272h-272zM1252 653v273h272v-273h-272zM1252 979v272h272v-272h-272zM1252 1307v272h272v-272h-272zM1579 0v272h273v-272h-273zM1579 653v273h273v-273h-273zM1579 1307v272h273v-272h-273zM1905 0v272h272 v-272h-272zM1905 326v272h272v-272h-272zM1905 653v273h272v-273h-272zM1905 1307v272h272v-272h-272z" />
<glyph unicode="&#xe0;" d="M109 0v272h272v-272h-272zM109 326v272h272v-272h-272zM109 653v273h272v-273h-272zM109 979v272h272v-272h-272zM109 1307v272h272v-272h-272zM174 2077h291l227 -348h-247zM436 653v273h273v-273h-273zM436 1307v272h273v-272h-273zM762 0v272h272v-272h-272zM762 326 v272h272v-272h-272zM762 653v273h272v-273h-272zM762 979v272h272v-272h-272zM762 1307v272h272v-272h-272z" />
<glyph unicode="&#xe1;" d="M109 0v272h272v-272h-272zM109 326v272h272v-272h-272zM109 653v273h272v-273h-272zM109 979v272h272v-272h-272zM109 1307v272h272v-272h-272zM436 653v273h273v-273h-273zM436 1307v272h273v-272h-273zM447 1729l227 348h293l-272 -348h-248zM762 0v272h272v-272h-272z M762 326v272h272v-272h-272zM762 653v273h272v-273h-272zM762 979v272h272v-272h-272zM762 1307v272h272v-272h-272z" />
<glyph unicode="&#xe2;" d="M109 0v272h272v-272h-272zM109 326v272h272v-272h-272zM109 653v273h272v-273h-272zM109 979v272h272v-272h-272zM109 1307v272h272v-272h-272zM197 1729l229 348h291l229 -348h-262l-115 192l-110 -192h-262zM436 653v273h273v-273h-273zM436 1307v272h273v-272h-273z M762 0v272h272v-272h-272zM762 326v272h272v-272h-272zM762 653v273h272v-273h-272zM762 979v272h272v-272h-272zM762 1307v272h272v-272h-272z" />
<glyph unicode="&#xe3;" d="M109 0v272h272v-272h-272zM109 326v272h272v-272h-272zM109 653v273h272v-273h-272zM109 979v272h272v-272h-272zM109 1307v272h272v-272h-272zM109 1769v273h272v-273h-272zM436 653v273h273v-273h-273zM436 1307v272h273v-272h-273zM436 1769v273h273v-273h-273zM762 0 v272h272v-272h-272zM762 326v272h272v-272h-272zM762 653v273h272v-273h-272zM762 979v272h272v-272h-272zM762 1307v272h272v-272h-272zM762 1769v273h272v-273h-272z" />
<glyph unicode="&#xe4;" d="M109 0v272h272v-272h-272zM109 326v272h272v-272h-272zM109 653v273h272v-273h-272zM109 979v272h272v-272h-272zM109 1307v272h272v-272h-272zM177 1769v273h272v-273h-272zM436 653v273h273v-273h-273zM436 1307v272h273v-272h-273zM695 1769v273h272v-273h-272zM762 0 v272h272v-272h-272zM762 326v272h272v-272h-272zM762 653v273h272v-273h-272zM762 979v272h272v-272h-272zM762 1307v272h272v-272h-272z" />
<glyph unicode="&#xe5;" d="M109 0v272h272v-272h-272zM109 326v272h272v-272h-272zM109 653v273h272v-273h-272zM109 979v272h272v-272h-272zM109 1307v272h272v-272h-272zM314 1632v445h514v-445h-514zM436 653v273h273v-273h-273zM436 1307v272h273v-272h-273zM477 1788h189v133h-189v-133zM762 0 v272h272v-272h-272zM762 326v272h272v-272h-272zM762 653v273h272v-273h-272zM762 979v272h272v-272h-272zM762 1307v272h272v-272h-272z" />
<glyph unicode="&#xe6;" horiz-adv-x="1796" d="M109 0v272h272v-272h-272zM109 326v272h272v-272h-272zM109 653v273h272v-273h-272zM109 979v272h272v-272h-272zM109 1307v272h272v-272h-272zM436 653v273h273v-273h-273zM436 1307v272h273v-272h-273zM762 0v272h272v-272h-272zM762 326v272h272v-272h-272zM762 653 v273h272v-273h-272zM762 979v272h272v-272h-272zM762 1307v272h272v-272h-272zM1090 0v272h270v-272h-270zM1090 653v273h270v-273h-270zM1090 1307v272h270v-272h-270zM1415 0v272h273v-272h-273zM1415 653v273h273v-273h-273zM1415 1307v272h273v-272h-273z" />
<glyph unicode="&#xe7;" d="M109 0v272h272v-272h-272zM109 326v272h272v-272h-272zM109 653v273h272v-273h-272zM109 979v272h272v-272h-272zM109 1307v272h272v-272h-272zM435 -55h272v-271h-272v271zM436 0v272h273v-272h-273zM436 1307v272h273v-272h-273zM762 0v272h272v-272h-272zM762 1307 v272h272v-272h-272z" />
<glyph unicode="&#xe8;" d="M109 0v272h272v-272h-272zM109 326v272h272v-272h-272zM109 653v273h272v-273h-272zM109 979v272h272v-272h-272zM109 1307v272h272v-272h-272zM174 2077h291l227 -348h-247zM436 0v272h273v-272h-273zM436 653v273h273v-273h-273zM436 1307v272h273v-272h-273zM762 0 v272h272v-272h-272zM762 653v273h272v-273h-272zM762 1307v272h272v-272h-272z" />
<glyph unicode="&#xe9;" d="M109 0v272h272v-272h-272zM109 326v272h272v-272h-272zM109 653v273h272v-273h-272zM109 979v272h272v-272h-272zM109 1307v272h272v-272h-272zM436 0v272h273v-272h-273zM436 653v273h273v-273h-273zM436 1307v272h273v-272h-273zM447 1729l227 348h293l-272 -348h-248z M762 0v272h272v-272h-272zM762 653v273h272v-273h-272zM762 1307v272h272v-272h-272z" />
<glyph unicode="&#xea;" d="M109 0v272h272v-272h-272zM109 326v272h272v-272h-272zM109 653v273h272v-273h-272zM109 979v272h272v-272h-272zM109 1307v272h272v-272h-272zM197 1729l229 348h291l229 -348h-262l-115 192l-110 -192h-262zM436 0v272h273v-272h-273zM436 653v273h273v-273h-273z M436 1307v272h273v-272h-273zM762 0v272h272v-272h-272zM762 653v273h272v-273h-272zM762 1307v272h272v-272h-272z" />
<glyph unicode="&#xeb;" d="M109 0v272h272v-272h-272zM109 326v272h272v-272h-272zM109 653v273h272v-273h-272zM109 979v272h272v-272h-272zM109 1307v272h272v-272h-272zM177 1769v273h272v-273h-272zM436 0v272h273v-272h-273zM436 653v273h273v-273h-273zM436 1307v272h273v-272h-273zM695 1769 v273h272v-273h-272zM762 0v272h272v-272h-272zM762 653v273h272v-273h-272zM762 1307v272h272v-272h-272z" />
<glyph unicode="&#xec;" horiz-adv-x="489" d="M-148 2077h291l227 -348h-247zM109 0v272h272v-272h-272zM109 326v272h272v-272h-272zM109 653v273h272v-273h-272zM109 979v272h272v-272h-272zM109 1307v272h272v-272h-272z" />
<glyph unicode="&#xed;" horiz-adv-x="489" d="M109 0v272h272v-272h-272zM109 326v272h272v-272h-272zM109 653v273h272v-273h-272zM109 979v272h272v-272h-272zM109 1307v272h272v-272h-272zM125 1729l227 348h293l-272 -348h-248z" />
<glyph unicode="&#xee;" horiz-adv-x="489" d="M-127 1729l229 348h291l229 -348h-262l-115 192l-110 -192h-262zM109 0v272h272v-272h-272zM109 326v272h272v-272h-272zM109 653v273h272v-273h-272zM109 979v272h272v-272h-272zM109 1307v272h272v-272h-272z" />
<glyph unicode="&#xef;" horiz-adv-x="489" d="M-147 1769v273h272v-273h-272zM109 0v272h272v-272h-272zM109 326v272h272v-272h-272zM109 653v273h272v-273h-272zM109 979v272h272v-272h-272zM109 1307v272h272v-272h-272zM371 1769v273h272v-273h-272z" />
<glyph unicode="&#xf0;" horiz-adv-x="1441" d="M82 653v273h272v-273h-272zM408 0v272h272v-272h-272zM408 326v272h272v-272h-272zM408 653v273h272v-273h-272zM408 979v272h272v-272h-272zM408 1307v272h272v-272h-272zM735 0v272h273v-272h-273zM735 1307v272h273v-272h-273zM1061 326v272h272v-272h-272zM1061 653 v273h272v-273h-272zM1061 979v272h272v-272h-272z" />
<glyph unicode="&#xf1;" d="M109 0v272h272v-272h-272zM109 326v272h272v-272h-272zM109 653v273h272v-273h-272zM109 979v272h272v-272h-272zM109 1307v272h272v-272h-272zM109 1769v273h272v-273h-272zM436 1307v272h273v-272h-273zM436 1769v273h273v-273h-273zM762 0v272h272v-272h-272zM762 326 v272h272v-272h-272zM762 653v273h272v-273h-272zM762 979v272h272v-272h-272zM762 1307v272h272v-272h-272zM762 1769v273h272v-273h-272z" />
<glyph unicode="&#xf2;" d="M109 0v272h272v-272h-272zM109 326v272h272v-272h-272zM109 653v273h272v-273h-272zM109 979v272h272v-272h-272zM109 1307v272h272v-272h-272zM174 2077h291l227 -348h-247zM436 0v272h273v-272h-273zM436 1307v272h273v-272h-273zM762 0v272h272v-272h-272zM762 326 v272h272v-272h-272zM762 653v273h272v-273h-272zM762 979v272h272v-272h-272zM762 1307v272h272v-272h-272z" />
<glyph unicode="&#xf3;" d="M109 0v272h272v-272h-272zM109 326v272h272v-272h-272zM109 653v273h272v-273h-272zM109 979v272h272v-272h-272zM109 1307v272h272v-272h-272zM436 0v272h273v-272h-273zM436 1307v272h273v-272h-273zM447 1729l227 348h293l-272 -348h-248zM762 0v272h272v-272h-272z M762 326v272h272v-272h-272zM762 653v273h272v-273h-272zM762 979v272h272v-272h-272zM762 1307v272h272v-272h-272z" />
<glyph unicode="&#xf4;" d="M109 0v272h272v-272h-272zM109 326v272h272v-272h-272zM109 653v273h272v-273h-272zM109 979v272h272v-272h-272zM109 1307v272h272v-272h-272zM197 1729l229 348h291l229 -348h-262l-115 192l-110 -192h-262zM436 0v272h273v-272h-273zM436 1307v272h273v-272h-273z M762 0v272h272v-272h-272zM762 326v272h272v-272h-272zM762 653v273h272v-273h-272zM762 979v272h272v-272h-272zM762 1307v272h272v-272h-272z" />
<glyph unicode="&#xf5;" d="M109 0v272h272v-272h-272zM109 326v272h272v-272h-272zM109 653v273h272v-273h-272zM109 979v272h272v-272h-272zM109 1307v272h272v-272h-272zM109 1769v273h272v-273h-272zM436 0v272h273v-272h-273zM436 1307v272h273v-272h-273zM436 1769v273h273v-273h-273zM762 0 v272h272v-272h-272zM762 326v272h272v-272h-272zM762 653v273h272v-273h-272zM762 979v272h272v-272h-272zM762 1307v272h272v-272h-272zM762 1769v273h272v-273h-272z" />
<glyph unicode="&#xf6;" d="M109 0v272h272v-272h-272zM109 326v272h272v-272h-272zM109 653v273h272v-273h-272zM109 979v272h272v-272h-272zM109 1307v272h272v-272h-272zM177 1769v273h272v-273h-272zM436 0v272h273v-272h-273zM436 1307v272h273v-272h-273zM695 1769v273h272v-273h-272zM762 0 v272h272v-272h-272zM762 326v272h272v-272h-272zM762 653v273h272v-273h-272zM762 979v272h272v-272h-272zM762 1307v272h272v-272h-272z" />
<glyph unicode="&#xf7;" d="M109 653v273h272v-273h-272zM436 164v272h273v-272h-273zM436 653v273h273v-273h-273zM436 1149v272h273v-272h-273zM762 653v273h272v-273h-272z" />
<glyph unicode="&#xf8;" d="M109 0v272h272v-272h-272zM109 -55h272v-271h-272v271zM109 326v272h272v-272h-272zM109 653v273h272v-273h-272zM109 979v272h272v-272h-272zM109 1307v272h272v-272h-272zM436 0v272h273v-272h-273zM436 653v273h273v-273h-273zM436 1307v272h273v-272h-273zM762 0v272 h272v-272h-272zM762 326v272h272v-272h-272zM762 653v273h272v-273h-272zM762 979v272h272v-272h-272zM762 1307v272h272v-272h-272zM762 1632v273h272v-273h-272z" />
<glyph unicode="&#xf9;" d="M109 0v272h272v-272h-272zM109 326v272h272v-272h-272zM109 653v273h272v-273h-272zM109 979v272h272v-272h-272zM109 1307v272h272v-272h-272zM174 2077h291l227 -348h-247zM436 0v272h273v-272h-273zM762 0v272h272v-272h-272zM762 326v272h272v-272h-272zM762 653v273 h272v-273h-272zM762 979v272h272v-272h-272zM762 1307v272h272v-272h-272z" />
<glyph unicode="&#xfa;" d="M109 0v272h272v-272h-272zM109 326v272h272v-272h-272zM109 653v273h272v-273h-272zM109 979v272h272v-272h-272zM109 1307v272h272v-272h-272zM436 0v272h273v-272h-273zM447 1729l227 348h293l-272 -348h-248zM762 0v272h272v-272h-272zM762 326v272h272v-272h-272z M762 653v273h272v-273h-272zM762 979v272h272v-272h-272zM762 1307v272h272v-272h-272z" />
<glyph unicode="&#xfb;" d="M109 0v272h272v-272h-272zM109 326v272h272v-272h-272zM109 653v273h272v-273h-272zM109 979v272h272v-272h-272zM109 1307v272h272v-272h-272zM197 1729l229 348h291l229 -348h-262l-115 192l-110 -192h-262zM436 0v272h273v-272h-273zM762 0v272h272v-272h-272z M762 326v272h272v-272h-272zM762 653v273h272v-273h-272zM762 979v272h272v-272h-272zM762 1307v272h272v-272h-272z" />
<glyph unicode="&#xfc;" d="M109 0v272h272v-272h-272zM109 326v272h272v-272h-272zM109 653v273h272v-273h-272zM109 979v272h272v-272h-272zM109 1307v272h272v-272h-272zM177 1769v273h272v-273h-272zM436 0v272h273v-272h-273zM695 1769v273h272v-273h-272zM762 0v272h272v-272h-272zM762 326 v272h272v-272h-272zM762 653v273h272v-273h-272zM762 979v272h272v-272h-272zM762 1307v272h272v-272h-272z" />
<glyph unicode="&#xfd;" d="M109 653v273h272v-273h-272zM109 979v272h272v-272h-272zM109 1307v272h272v-272h-272zM436 0v272h273v-272h-273zM436 326v272h273v-272h-273zM436 653v273h273v-273h-273zM447 1729l227 348h293l-272 -348h-248zM762 653v273h272v-273h-272zM762 979v272h272v-272h-272 zM762 1307v272h272v-272h-272z" />
<glyph unicode="&#xfe;" d="M109 0v272h272v-272h-272zM109 326v272h272v-272h-272zM109 653v273h272v-273h-272zM109 979v272h272v-272h-272zM109 1307v272h272v-272h-272zM436 326v272h273v-272h-273zM436 979v272h273v-272h-273zM762 326v272h272v-272h-272zM762 653v273h272v-273h-272zM762 979 v272h272v-272h-272z" />
<glyph unicode="&#xff;" d="M109 653v273h272v-273h-272zM109 979v272h272v-272h-272zM109 1307v272h272v-272h-272zM177 1769v273h272v-273h-272zM436 0v272h273v-272h-273zM436 326v272h273v-272h-273zM436 653v273h273v-273h-273zM695 1769v273h272v-273h-272zM762 653v273h272v-273h-272z M762 979v272h272v-272h-272zM762 1307v272h272v-272h-272z" />
<glyph unicode="&#x152;" horiz-adv-x="1796" d="M109 0v272h272v-272h-272zM109 326v272h272v-272h-272zM109 653v273h272v-273h-272zM109 979v272h272v-272h-272zM109 1307v272h272v-272h-272zM436 0v272h273v-272h-273zM436 1307v272h273v-272h-273zM762 0v272h272v-272h-272zM762 326v272h272v-272h-272zM762 653v273 h272v-273h-272zM762 979v272h272v-272h-272zM762 1307v272h272v-272h-272zM1090 0v272h270v-272h-270zM1090 653v273h270v-273h-270zM1090 1307v272h270v-272h-270zM1415 0v272h273v-272h-273zM1415 653v273h273v-273h-273zM1415 1307v272h273v-272h-273z" />
<glyph unicode="&#x153;" horiz-adv-x="1796" d="M109 0v272h272v-272h-272zM109 326v272h272v-272h-272zM109 653v273h272v-273h-272zM109 979v272h272v-272h-272zM109 1307v272h272v-272h-272zM436 0v272h273v-272h-273zM436 1307v272h273v-272h-273zM762 0v272h272v-272h-272zM762 326v272h272v-272h-272zM762 653v273 h272v-273h-272zM762 979v272h272v-272h-272zM762 1307v272h272v-272h-272zM1090 0v272h270v-272h-270zM1090 653v273h270v-273h-270zM1090 1307v272h270v-272h-270zM1415 0v272h273v-272h-273zM1415 653v273h273v-273h-273zM1415 1307v272h273v-272h-273z" />
<glyph unicode="&#x178;" d="M109 653v273h272v-273h-272zM109 979v272h272v-272h-272zM109 1307v272h272v-272h-272zM177 1769v273h272v-273h-272zM436 0v272h273v-272h-273zM436 326v272h273v-272h-273zM436 653v273h273v-273h-273zM695 1769v273h272v-273h-272zM762 653v273h272v-273h-272z M762 979v272h272v-272h-272zM762 1307v272h272v-272h-272z" />
<glyph unicode="&#x2c6;" horiz-adv-x="966" d="M109 1729l229 348h291l229 -348h-262l-115 192l-110 -192h-262z" />
<glyph unicode="&#x2dc;" d="M109 1769v273h272v-273h-272zM436 1769v273h273v-273h-273zM762 1769v273h272v-273h-272z" />
<glyph unicode="&#x2000;" horiz-adv-x="1038" />
<glyph unicode="&#x2001;" horiz-adv-x="2077" />
<glyph unicode="&#x2002;" horiz-adv-x="1038" />
<glyph unicode="&#x2003;" horiz-adv-x="2077" />
<glyph unicode="&#x2004;" horiz-adv-x="692" />
<glyph unicode="&#x2005;" horiz-adv-x="519" />
<glyph unicode="&#x2006;" horiz-adv-x="346" />
<glyph unicode="&#x2007;" horiz-adv-x="346" />
<glyph unicode="&#x2008;" horiz-adv-x="259" />
<glyph unicode="&#x2009;" horiz-adv-x="415" />
<glyph unicode="&#x200a;" horiz-adv-x="115" />
<glyph unicode="&#x2010;" horiz-adv-x="817" d="M109 653v273h272v-273h-272zM436 653v273h273v-273h-273z" />
<glyph unicode="&#x2011;" horiz-adv-x="817" d="M109 653v273h272v-273h-272zM436 653v273h273v-273h-273z" />
<glyph unicode="&#x2012;" horiz-adv-x="817" d="M109 653v273h272v-273h-272zM436 653v273h273v-273h-273z" />
<glyph unicode="&#x2013;" horiz-adv-x="1470" d="M109 653v273h272v-273h-272zM436 653v273h273v-273h-273zM762 653v273h272v-273h-272zM1090 653v273h270v-273h-270z" />
<glyph unicode="&#x2014;" horiz-adv-x="2123" d="M109 653v273h272v-273h-272zM436 653v273h273v-273h-273zM762 653v273h272v-273h-272zM1090 653v273h270v-273h-270zM1415 653v273h273v-273h-273zM1741 653v273h272v-273h-272z" />
<glyph unicode="&#x2018;" horiz-adv-x="817" d="M109 979v272h272v-272h-272zM109 1307v272h272v-272h-272zM436 979v272h273v-272h-273z" />
<glyph unicode="&#x2019;" horiz-adv-x="817" d="M109 1307v272h272v-272h-272zM436 979v272h273v-272h-273zM436 1307v272h273v-272h-273z" />
<glyph unicode="&#x201a;" horiz-adv-x="817" d="M109 0v272h272v-272h-272zM436 0v272h273v-272h-273zM436 -55h273v-271h-273v271z" />
<glyph unicode="&#x201c;" horiz-adv-x="1523" d="M109 979v272h272v-272h-272zM109 1307v272h272v-272h-272zM436 979v272h273v-272h-273zM818 979v272h272v-272h-272zM818 1307v272h272v-272h-272zM1145 979v272h273v-272h-273z" />
<glyph unicode="&#x201d;" horiz-adv-x="1523" d="M109 1307v272h272v-272h-272zM436 979v272h273v-272h-273zM436 1307v272h273v-272h-273zM818 1307v272h272v-272h-272zM1145 979v272h273v-272h-273zM1145 1307v272h273v-272h-273z" />
<glyph unicode="&#x201e;" horiz-adv-x="1523" d="M109 0v272h272v-272h-272zM436 0v272h273v-272h-273zM436 -55h273v-271h-273v271zM818 0v272h272v-272h-272zM1145 0v272h273v-272h-273zM1145 -55h273v-271h-273v271z" />
<glyph unicode="&#x2022;" d="M109 326v272h272v-272h-272zM109 653v273h272v-273h-272zM109 979v272h272v-272h-272zM436 326v272h273v-272h-273zM436 653v273h273v-273h-273zM436 979v272h273v-272h-273zM762 326v272h272v-272h-272zM762 653v273h272v-273h-272zM762 979v272h272v-272h-272z" />
<glyph unicode="&#x2026;" horiz-adv-x="1579" d="M164 0v272h272v-272h-272zM653 0v272h273v-272h-273zM1143 0v272h272v-272h-272z" />
<glyph unicode="&#x202f;" horiz-adv-x="415" />
<glyph unicode="&#x2039;" horiz-adv-x="817" d="M109 653v273h272v-273h-272zM436 326v272h273v-272h-273zM436 979v272h273v-272h-273z" />
<glyph unicode="&#x203a;" horiz-adv-x="817" d="M109 326v272h272v-272h-272zM109 979v272h272v-272h-272zM436 653v273h273v-273h-273z" />
<glyph unicode="&#x205f;" horiz-adv-x="519" />
<glyph unicode="&#x20ac;" horiz-adv-x="1441" d="M82 653v273h272v-273h-272zM408 0v272h272v-272h-272zM408 326v272h272v-272h-272zM408 653v273h272v-273h-272zM408 979v272h272v-272h-272zM408 1307v272h272v-272h-272zM735 0v272h273v-272h-273zM735 653v273h273v-273h-273zM735 1307v272h273v-272h-273zM1061 0v272 h272v-272h-272zM1061 1307v272h272v-272h-272z" />
<glyph unicode="&#x2122;" horiz-adv-x="2207" d="M109 1376v203h200v-203h-200zM350 647v203h205v-203h-205zM350 891v201h205v-201h-205zM350 1133v202h205v-202h-205zM350 1376v203h205v-203h-205zM596 1376v203h201v-203h-201zM922 647v203h204v-203h-204zM922 891v201h204v-201h-204zM922 1133v202h204v-202h-204z M922 1376v203h204v-203h-204zM1167 1376v203h201v-203h-201zM1409 647v203h203v-203h-203zM1409 891v201h203v-201h-203zM1409 1133v202h203v-202h-203zM1409 1376v203h203v-203h-203zM1653 1376v203h202v-203h-202zM1896 647v203h203v-203h-203zM1896 891v201h203v-201 h-203zM1896 1133v202h203v-202h-203zM1896 1376v203h203v-203h-203z" />
<glyph unicode="&#x25fc;" horiz-adv-x="1576" d="M0 0v1577h1577v-1577h-1577z" />
</font>
</defs>
</svg>
